<?xml version="1.0" standalone="no"?><!DOCTYPE svg PUBLIC "-//W3C//DTD SVG 1.1//EN" "http://www.w3.org/Graphics/SVG/1.1/DTD/svg11.dtd"><svg class="icon" width="32px" height="32.00px" viewBox="0 0 1024 1024" version="1.1" xmlns="http://www.w3.org/2000/svg"><path fill="#999999" d="M520.0128 350.7456c44.8 4.8128 67.9936 28.8 69.5808 72.0128-3.2 19.2-19.9936 44.032-50.4064 74.3936-39.9872 38.4-59.9808 72.832-59.9808 103.1936v31.2064h50.4064v-21.6064c0-25.5744 19.2-55.9872 57.6-91.2128 40.0128-35.1744 60.0064-67.2 60.0064-96-3.2-79.9744-47.2064-121.5744-131.9936-124.8-97.6128-1.5872-146.4064 48-146.4064 148.8128h52.8128c-1.6128-67.2 31.1808-99.1744 98.3808-96z m-40.8064 331.2128v57.6h50.4064v-57.6h-50.4064z"  /><path fill="#999999" d="M512 944.9472c-239.9744 0-435.2-195.2256-435.2-435.2s195.2256-435.2 435.2-435.2c239.9744 0 435.2 195.2256 435.2 435.2s-195.2256 435.2-435.2 435.2z m0-819.2c-211.7376 0-384 172.2624-384 384s172.2624 384 384 384 384-172.2624 384-384-172.2624-384-384-384z"  /></svg>