<?xml version="1.0" standalone="no"?><!DOCTYPE svg PUBLIC "-//W3C//DTD SVG 1.1//EN" "http://www.w3.org/Graphics/SVG/1.1/DTD/svg11.dtd"><svg class="icon" width="32px" height="32.00px" viewBox="0 0 1024 1024" version="1.1" xmlns="http://www.w3.org/2000/svg"><path d="M512 979.8c-55.4 0-109.6-9.6-161.2-28.5-49.8-18.3-95.9-44.7-137-78.7-82.4-68.1-139.5-163.1-160.6-267.4-5.5-27-8.6-54.8-9.2-82.6-0.1-3.8-0.1-7.2-0.1-10.6 0-41.9 5.5-83.4 16.5-123.5 1.6-6 3.5-12.1 5.4-18.2C72.6 349 81 328 90.7 307.8v-0.1c9.3-19.1 20-37.8 31.9-55.6 12.5-18.7 26.5-36.6 41.5-53.3 34.6-38.4 74.9-70.5 119.9-95.6 24.1-13.4 49.5-24.8 75.5-33.7C408.6 52.7 459.8 44.2 512 44.2c83.6 0 165.6 22.3 237.3 64.5 69.5 40.9 127.6 99.5 168.1 169.2 0.7 1.2 1.3 2.5 1.7 3.9 7.5 23.2-1.9 48.2-22.9 60.7-8 4.8-17.2 7.3-26.6 7.3-5.8 0-11.5-1-16.9-2.8l91.7 52.9c3.3 1.5 6.5 3.3 9.5 5.5 10 6.2 16.8 16.2 19.5 28.3v0.2c0.2 0.6 0.3 1.3 0.4 1.9 1.5 9 2.7 18.1 3.6 27.2 1.2 11.2 1.9 22.6 2.3 33.9v1.2c0 0.8 0.1 1.6 0.1 2.4v2.5c0.1 3.3 0.1 6.3 0.1 9 0 8.9-0.3 18.1-0.8 27.2 0 0.6-0.1 1.3-0.2 1.9-3.6 56.8-17.3 111.7-40.7 163.4-10.6 23.3-23.1 45.8-37.3 67-0.3 0.8-0.7 1.5-1.2 2.3-0.2 0.4-0.5 0.7-0.7 1.1-12.6 18.6-26.8 36.4-42 53-43.3 47.2-94.7 84.5-152.9 110.7-8.6 3.9-17.6 7.6-26.7 11-1.7 0.6-3.5 1.3-5.2 2-4 1.4-8.1 2.9-12.2 4.3l-0.3 0.1c-47.3 15.8-97.1 23.8-147.7 23.8z m-318.7-286c63 109.4 178.2 179.2 307.6 182.5 2.4 0.1 4.9 0.1 7.3 0.1L310.8 762.5c-15.7-9-25.6-25.9-26-43.9-0.5-19.1 9.4-36.9 26-46.5l196.5-113.4c8.7-6.1 19.3-9.5 30-9.5 5.8 0 11.6 1 17 2.9 4 1.4 7.8 3.2 11.3 5.5l255 147.1c17-27 30.2-55.9 39.5-86.3L813 645.6c-7.9 4.6-16.9 7-26 7-3.1 0-6.2-0.3-9.3-0.8-6.2-1-12.1-3.1-17.6-6.3L430.3 455.1c-15.6-9-25.6-25.9-26-43.9-0.5-19.1 9.4-36.9 26-46.5L624 252.9c9.4-8.1 20.9-12.5 32.5-12.5 7.6 0 15 2 21.5 5.7l3 1.7c1.4 0.7 2.7 1.5 4 2.3l150.5 86.8c-4.1-3.6-7.7-7.8-10.5-12.6-64.8-108.9-179-175.7-305.6-178.9-3.1-0.1-6.3-0.1-9.4-0.1h-5.2l66.2 38.2c9.1 4.6 16.5 11.6 21.6 20.4l0.1 0.1c6.9 12.1 8.7 26.2 5 39.6 0 0-0.1 0.4-0.1 0.5-0.2 0.7-0.4 1.5-0.7 2.2v0.1c-0.5 1.4-1 2.9-1.7 4.3-0.1 0.2-0.2 0.5-0.3 0.8-0.3 0.7-0.6 1.4-1 2-0.1 0.2-0.2 0.4-0.4 0.7-1.5 2.9-3.3 5.6-5.3 8.1l-0.3 0.3c-0.3 0.4-0.7 0.8-1 1.2l-0.2 0.2c-0.3 0.3-0.5 0.6-0.8 0.9-0.1 0.1-0.3 0.3-0.4 0.5-0.9 0.9-1.8 1.9-2.8 2.8-0.8 0.8-1.6 1.4-2.2 1.9-0.2 0.2-0.5 0.4-0.7 0.6-0.8 0.7-1.7 1.3-2.7 2l-0.2 0.2c-1.7 1.2-3.3 2.1-4.9 3L372.9 390.8c-6.1 3.5-12.7 5.7-19.7 6.6-2.3 0.3-4.6 0.4-6.8 0.4-9.1 0-18.1-2.4-26-7L198 320.1c-3.7 6-7.2 12.1-10.5 18.2l264.1 152.4c9.1 4.6 16.5 11.6 21.6 20.4 0 0 0 0.1 0.1 0.1 7 12 8.8 26.2 5.1 39.7l-0.1 0.4c-0.2 0.8-0.4 1.5-0.7 2.2v0.1c-0.5 1.4-1 2.9-1.7 4.3l-0.3 0.7c-0.3 0.7-0.6 1.4-1 2-0.1 0.3-0.3 0.5-0.4 0.7-1.5 2.9-3.4 5.7-5.4 8.2l-0.2 0.3c-0.3 0.4-0.7 0.8-1 1.2-0.3 0.4-0.6 0.7-0.9 1-0.1 0.1-0.3 0.3-0.4 0.5-0.9 1-1.9 1.9-2.8 2.8-0.8 0.7-1.5 1.3-2.2 1.9-0.3 0.2-0.5 0.4-0.8 0.7-0.8 0.6-1.7 1.3-2.7 2l-0.3 0.2c-1.7 1.1-3.3 2.1-4.8 2.9L253.4 698.2c-6.1 3.5-12.7 5.7-19.7 6.6-2.3 0.3-4.6 0.4-6.8 0.4-9.1 0-18.1-2.4-26-7l-7.6-4.4z m414.4 119.8l96.7-55.8-167-96.3-96.7 55.8 167 96.3zM167.6 558.8l96.7-55.8-112.8-65.1c-4.2 20.9-6.7 42.3-7.2 63.7-0.4 14.9 0.2 29.9 1.6 44.6l21.7 12.6z m559.6-52.5l96.7-55.8-167-96.3-96.7 55.8 167 96.3zM287.1 251.5l96.7-55.8-28.1-16.2c-32.9 15.4-63.1 35.3-90.1 59.6l21.5 12.4z" fill="#FFD4D4" /><path d="M959.9 500.9c0-1.1-0.1-2.3-0.1-3.4-0.3-10.9-1.1-21.8-2.2-32.5-0.9-8.8-2.1-17.5-3.5-26.1 0-0.2-0.1-0.3-0.1-0.5-1.4-7-5.3-13-11.3-16.5-2.2-1.7-4.7-3.1-7.2-4.2L674.6 267.2c-1-0.7-2.1-1.3-3.2-1.8l-3.4-2c-10-5.8-22.9-3-32.3 5.8L440.2 382c-10.6 6.1-16.3 17.3-16 28.7 0.2 10.8 5.9 21.3 16 27.1L770 628.1c3.5 2 7.2 3.3 11 3.9 7.2 1.3 15 0.2 21.9-3.8l87.3-50.4c-9.7 55.4-31.3 107.6-63.4 153.5L555.2 574.6c-2.3-1.5-4.8-2.7-7.4-3.6-10.1-3.5-21.3-1.7-29.7 4.5L320.8 689.4c-10.6 6.1-16.3 17.3-16 28.7 0.2 10.8 5.9 21.3 16 27.1l253.1 146.1c-20.8 3.4-42.1 5.2-63.5 5.2-3.3 0-6.6 0-10-0.1-162.2-4.1-298.9-108.1-352.2-251.6L211 681c6.4 3.7 13.5 4.9 20.3 4 4.2-0.5 8.3-1.8 12.2-4.1l199.4-115c1.1-0.6 2.2-1.3 3.3-2l0.1-0.1c0.6-0.4 1.2-0.8 1.7-1.3 0.1-0.1 0.3-0.2 0.4-0.4 0.5-0.4 0.9-0.8 1.4-1.2 0.6-0.5 1.2-1.1 1.7-1.7l0.3-0.3c0.2-0.2 0.4-0.4 0.5-0.6 0.2-0.3 0.4-0.5 0.7-0.8l0.2-0.2c1.3-1.6 2.4-3.3 3.3-5.1 0.1-0.1 0.2-0.3 0.2-0.4l0.6-1.2c0.1-0.2 0.1-0.3 0.2-0.5 0.4-0.9 0.7-1.8 1-2.7 0.2-0.5 0.3-0.9 0.4-1.4 0-0.1 0.1-0.2 0.1-0.3 2.2-8 1.3-16.7-3.1-24.4-3.3-5.8-8.2-10.1-13.8-12.8l-281-162.2c8.8-18.5 19-36.2 30.4-52.9l138.9 80.1c6.4 3.7 13.5 4.9 20.3 4 4.2-0.5 8.3-1.8 12.2-4.1l199.4-115c1.1-0.6 2.2-1.3 3.3-2l0.1-0.1c0.6-0.4 1.2-0.8 1.7-1.3 0.1-0.1 0.3-0.2 0.4-0.3 0.5-0.4 0.9-0.8 1.4-1.2 0.6-0.5 1.2-1.1 1.7-1.7l0.3-0.3c0.2-0.2 0.4-0.4 0.5-0.6 0.2-0.3 0.4-0.5 0.7-0.8l0.2-0.2c1.3-1.6 2.4-3.3 3.3-5.1 0.1-0.1 0.1-0.3 0.2-0.4l0.6-1.2c0.1-0.2 0.1-0.3 0.2-0.5 0.4-0.9 0.7-1.8 1-2.7 0.2-0.5 0.3-0.9 0.4-1.4 0-0.1 0.1-0.2 0.1-0.3 2.2-8 1.3-16.7-3.1-24.4-3.3-5.8-8.2-10.1-13.8-12.8l-120.7-69.6c22.5-4.1 45.6-6.2 69.1-6.2 3.3 0 6.6 0 9.9 0.1 133.5 3.4 253.9 73.9 322.3 188.7 9 15.2 28.7 20.2 43.9 11.1 13.1-7.8 18.6-23.4 14.1-37.3C822.5 154.1 677.8 64.2 512 64.2c-51.1 0-100.1 8.5-145.9 24.3-25.2 8.7-49.4 19.5-72.3 32.3-43.2 24.1-81.9 55.1-114.8 91.5-14.4 16-27.7 33.1-39.8 51.1-11.4 17-21.6 34.8-30.6 53.3-9.3 19.2-17.3 39.2-23.9 59.8-1.8 5.8-3.5 11.6-5.1 17.4-10.2 37.6-15.7 77.2-15.7 118.1 0 3.4 0 6.8 0.1 10.2 0.6 27 3.6 53.4 8.8 79.1C114.2 805.8 295.1 959.8 512 959.8c49.5 0 97.1-8 141.6-22.8 0.1 0 0.2-0.1 0.3-0.1 3.9-1.3 7.8-2.6 11.6-4.1 1.7-0.6 3.4-1.3 5-1.9 8.6-3.3 17.2-6.8 25.5-10.6 55.8-25.2 105.5-61.4 146.4-106 14.6-15.9 28-32.9 40.2-50.8-0.1-0.1-0.2-0.1-0.3-0.2 14.4-21.2 27-43.6 37.7-67.2 22.7-50 35.8-103.1 39.1-158.1l0.1-0.1c0.5-8.6 0.8-17.3 0.8-26 0-2.9 0-5.8-0.1-8.6 0.1-0.8 0.1-1.6 0-2.4zM443.8 207.3l39.5 22.8L346.6 309l-39.5-22.8 136.7-78.9z m-87-50.3l67 38.7-136.7 78.9-54.5-31.4c35.1-36.4 77.3-65.8 124.2-86.2z m7.1 380.4l-136.7 78.9-39.5-22.8 136.7-78.9 39.5 22.8z m-239.6-36.3c0.8-32.5 5.7-63.9 14-93.9l166 95.8-136.7 78.9-40.5-23.4c-2.3-18.7-3.3-37.9-2.8-57.4z m276.4 216.2l136.7-78.9 207 119.4-136.7 78.9-207-119.4z m375.4 72.9c-34.5 32.8-74 58.4-116.6 76.3l-31.7-18.3 136.7-78.9 20.7 11.9c-3 3.1-6 6.1-9.1 9zM520.2 409.9L656.9 331l207 119.4-136.8 78.9-206.9-119.4z m266.5 153.8l-39.5-22.8L883.9 462l9.7 5.6c1.2 10.9 2 22 2.3 33l-109.2 63.1z" fill="#FF7550" /><path d="M959.9 500.9c0-1.1-0.1-2.3-0.1-3.4-0.3-10.9-1.1-21.8-2.2-32.5-0.9-8.8-2.1-17.5-3.5-26.1 0-0.2-0.1-0.3-0.1-0.5-1.4-7-5.3-13-11.3-16.5-2.2-1.7-4.7-3.1-7.2-4.2L674.6 267.2c-1-0.7-2.1-1.3-3.2-1.8l-3.4-2c-10-5.8-22.9-3-32.3 5.8L440.2 382c-10.6 6.1-16.3 17.3-16 28.7 0.2 10.8 5.9 21.3 16 27.1L770 628.1c3.5 2 7.2 3.3 11 3.9 7.2 1.3 15 0.2 21.9-3.8l87.3-50.4c-9.7 55.4-31.3 107.6-63.4 153.5L555.2 574.6c-2.3-1.5-4.8-2.7-7.4-3.6-10.1-3.5-21.3-1.7-29.7 4.5L320.8 689.4c-10.6 6.1-16.3 17.3-16 28.7 0.2 10.8 5.9 21.3 16 27.1l253.1 146.1c-20.8 3.4-42.1 5.2-63.5 5.2-3.3 0-6.6 0-10-0.1-162.2-4.1-298.9-108.1-352.2-251.6L211 681c6.4 3.7 13.5 4.9 20.3 4 4.2-0.5 8.3-1.8 12.2-4.1l199.4-115c1.1-0.6 2.2-1.3 3.3-2l0.1-0.1c0.6-0.4 1.2-0.8 1.7-1.3 0.1-0.1 0.3-0.2 0.4-0.4 0.5-0.4 0.9-0.8 1.4-1.2 0.6-0.5 1.2-1.1 1.7-1.7l0.3-0.3c0.2-0.2 0.4-0.4 0.5-0.6 0.2-0.3 0.4-0.5 0.7-0.8l0.2-0.2c1.3-1.6 2.4-3.3 3.3-5.1 0.1-0.1 0.2-0.3 0.2-0.4l0.6-1.2c0.1-0.2 0.1-0.3 0.2-0.5 0.4-0.9 0.7-1.8 1-2.7 0.2-0.5 0.3-0.9 0.4-1.4 0-0.1 0.1-0.2 0.1-0.3 2.2-8 1.3-16.7-3.1-24.4-3.3-5.8-8.2-10.1-13.8-12.8l-281-162.2c8.8-18.5 19-36.2 30.4-52.9l138.9 80.1c6.4 3.7 13.5 4.9 20.3 4 4.2-0.5 8.3-1.8 12.2-4.1l199.4-115c1.1-0.6 2.2-1.3 3.3-2l0.1-0.1c0.6-0.4 1.2-0.8 1.7-1.3 0.1-0.1 0.3-0.2 0.4-0.3 0.5-0.4 0.9-0.8 1.4-1.2 0.6-0.5 1.2-1.1 1.7-1.7l0.3-0.3c0.2-0.2 0.4-0.4 0.5-0.6 0.2-0.3 0.4-0.5 0.7-0.8l0.2-0.2c1.3-1.6 2.4-3.3 3.3-5.1 0.1-0.1 0.1-0.3 0.2-0.4l0.6-1.2c0.1-0.2 0.1-0.3 0.2-0.5 0.4-0.9 0.7-1.8 1-2.7 0.2-0.5 0.3-0.9 0.4-1.4 0-0.1 0.1-0.2 0.1-0.3 2.2-8 1.3-16.7-3.1-24.4-3.3-5.8-8.2-10.1-13.8-12.8l-120.7-69.6c22.5-4.1 45.6-6.2 69.1-6.2 3.3 0 6.6 0 9.9 0.1 133.5 3.4 253.9 73.9 322.3 188.7 9 15.2 28.7 20.2 43.9 11.1 13.1-7.8 18.6-23.4 14.1-37.3C822.5 154.1 677.8 64.2 512 64.2c-51.1 0-100.1 8.5-145.9 24.3-25.2 8.7-49.4 19.5-72.3 32.3-43.2 24.1-81.9 55.1-114.8 91.5-14.4 16-27.7 33.1-39.8 51.1-11.4 17-21.6 34.8-30.6 53.3-9.3 19.2-17.3 39.2-23.9 59.8-1.8 5.8-3.5 11.6-5.1 17.4-10.2 37.6-15.7 77.2-15.7 118.1 0 3.4 0 6.8 0.1 10.2 0.6 27 3.6 53.4 8.8 79.1C114.2 805.8 295.1 959.8 512 959.8c49.5 0 97.1-8 141.6-22.8 0.1 0 0.2-0.1 0.3-0.1 3.9-1.3 7.8-2.6 11.6-4.1 1.7-0.6 3.4-1.3 5-1.9 8.6-3.3 17.2-6.8 25.5-10.6 55.8-25.2 105.5-61.4 146.4-106 14.6-15.9 28-32.9 40.2-50.8-0.1-0.1-0.2-0.1-0.3-0.2 14.4-21.2 27-43.6 37.7-67.2 22.7-50 35.8-103.1 39.1-158.1l0.1-0.1c0.5-8.6 0.8-17.3 0.8-26 0-2.9 0-5.8-0.1-8.6 0.1-0.8 0.1-1.6 0-2.4zM443.8 207.3l39.5 22.8L346.6 309l-39.5-22.8 136.7-78.9z m-87-50.3l67 38.7-136.7 78.9-54.5-31.4c35.1-36.4 77.3-65.8 124.2-86.2z m7.1 380.4l-136.7 78.9-39.5-22.8 136.7-78.9 39.5 22.8z m-239.6-36.3c0.8-32.5 5.7-63.9 14-93.9l166 95.8-136.7 78.9-40.5-23.4c-2.3-18.7-3.3-37.9-2.8-57.4z m276.4 216.2l136.7-78.9 207 119.4-136.7 78.9-207-119.4z m375.4 73c-34.5 32.8-74 58.4-116.6 76.3l-31.7-18.3 136.7-78.9 20.7 11.9c-3 3-6 6-9.1 9zM520.2 409.9L656.9 331l207 119.4-136.8 78.9-206.9-119.4z m266.5 153.8l-39.5-22.8L883.9 462l9.7 5.6c1.2 10.9 2 22 2.3 33l-109.2 63.1z" fill="#FF7550" /></svg>