<?xml version="1.0" standalone="no"?><!DOCTYPE svg PUBLIC "-//W3C//DTD SVG 1.1//EN" "http://www.w3.org/Graphics/SVG/1.1/DTD/svg11.dtd"><svg class="icon" width="32px" height="32.00px" viewBox="0 0 1024 1024" version="1.1" xmlns="http://www.w3.org/2000/svg"><path fill="#999999" d="M491.52 858.112l-108.544-106.496c-8.192-8.192-20.48-8.192-28.672 0-8.192 8.192-8.192 20.48 0 28.672l139.264 135.168c0 2.048 2.048 6.144 4.096 8.192 4.096 4.096 10.24 6.144 16.384 6.144 6.144 0 12.288-2.048 16.384-6.144 2.048-2.048 4.096-4.096 4.096-8.192l139.264-135.168c8.192-8.192 8.192-20.48 0-28.672-8.192-8.192-20.48-8.192-28.672 0l-110.592 108.544v-368.64c0-12.288-8.192-20.48-20.48-20.48s-20.48 8.192-20.48 20.48v366.592z m-399.36-344.064v-307.2c0-45.056 36.864-81.92 81.92-81.92h675.84c45.056 0 81.92 36.864 81.92 81.92v307.2c0 45.056-36.864 81.92-81.92 81.92h-96.256c-12.288 0-20.48 8.192-20.48 20.48s8.192 20.48 20.48 20.48h96.256c67.584 0 122.88-55.296 122.88-122.88v-307.2c0-67.584-55.296-122.88-122.88-122.88h-675.84c-67.584 0-122.88 55.296-122.88 122.88v307.2c0 67.584 55.296 122.88 122.88 122.88v-40.96h-4.096v40.96h102.4c12.288 0 20.48-8.192 20.48-20.48s-8.192-20.48-20.48-20.48h-98.304c-45.056 0-81.92-36.864-81.92-81.92z m296.96-237.568c-12.288 0-20.48 8.192-20.48 20.48s8.192 20.48 20.48 20.48h245.76c12.288 0 20.48-8.192 20.48-20.48s-8.192-20.48-20.48-20.48h-245.76z" /></svg>